<mxfile host="app.diagrams.net" agent="Mozilla/5.0 (Windows NT 10.0; Win64; x64) AppleWebKit/537.36 (KHTML, like Gecko) Chrome/127.0.0.0 Safari/537.36" version="24.7.7">
  <diagram name="P치gina-1" id="pjSTbh5mnrrUmqiHpMGM">
    <mxGraphModel dx="989" dy="532" grid="1" gridSize="10" guides="1" tooltips="1" connect="1" arrows="1" fold="1" page="1" pageScale="1" pageWidth="827" pageHeight="1169" math="0" shadow="0">
      <root>
        <mxCell id="0" />
        <mxCell id="1" parent="0" />
        <mxCell id="XJ-OeJNL36vLXr4gW2SC-34" value="" style="edgeStyle=orthogonalEdgeStyle;rounded=0;orthogonalLoop=1;jettySize=auto;html=1;entryX=0.5;entryY=0;entryDx=0;entryDy=0;" edge="1" parent="1" source="XJ-OeJNL36vLXr4gW2SC-5" target="XJ-OeJNL36vLXr4gW2SC-13">
          <mxGeometry relative="1" as="geometry">
            <Array as="points">
              <mxPoint x="240" y="132" />
              <mxPoint x="240" y="60" />
              <mxPoint x="635" y="60" />
            </Array>
          </mxGeometry>
        </mxCell>
        <mxCell id="XJ-OeJNL36vLXr4gW2SC-5" value="Usuario" style="swimlane;fontStyle=0;childLayout=stackLayout;horizontal=1;startSize=26;fillColor=none;horizontalStack=0;resizeParent=1;resizeParentMax=0;resizeLast=0;collapsible=1;marginBottom=0;whiteSpace=wrap;html=1;" vertex="1" parent="1">
          <mxGeometry x="50" y="80" width="150" height="104" as="geometry" />
        </mxCell>
        <mxCell id="XJ-OeJNL36vLXr4gW2SC-19" value="+ nombre: String" style="text;strokeColor=none;fillColor=none;align=left;verticalAlign=top;spacingLeft=4;spacingRight=4;overflow=hidden;rotatable=0;points=[[0,0.5],[1,0.5]];portConstraint=eastwest;whiteSpace=wrap;html=1;" vertex="1" parent="XJ-OeJNL36vLXr4gW2SC-5">
          <mxGeometry y="26" width="150" height="26" as="geometry" />
        </mxCell>
        <mxCell id="XJ-OeJNL36vLXr4gW2SC-7" value="+ nombreUsuario: String" style="text;strokeColor=none;fillColor=none;align=left;verticalAlign=top;spacingLeft=4;spacingRight=4;overflow=hidden;rotatable=0;points=[[0,0.5],[1,0.5]];portConstraint=eastwest;whiteSpace=wrap;html=1;" vertex="1" parent="XJ-OeJNL36vLXr4gW2SC-5">
          <mxGeometry y="52" width="150" height="26" as="geometry" />
        </mxCell>
        <mxCell id="XJ-OeJNL36vLXr4gW2SC-8" value="+ contrase침a: String" style="text;strokeColor=none;fillColor=none;align=left;verticalAlign=top;spacingLeft=4;spacingRight=4;overflow=hidden;rotatable=0;points=[[0,0.5],[1,0.5]];portConstraint=eastwest;whiteSpace=wrap;html=1;" vertex="1" parent="XJ-OeJNL36vLXr4gW2SC-5">
          <mxGeometry y="78" width="150" height="26" as="geometry" />
        </mxCell>
        <mxCell id="XJ-OeJNL36vLXr4gW2SC-9" value="Administrador" style="swimlane;fontStyle=0;childLayout=stackLayout;horizontal=1;startSize=26;fillColor=none;horizontalStack=0;resizeParent=1;resizeParentMax=0;resizeLast=0;collapsible=1;marginBottom=0;whiteSpace=wrap;html=1;" vertex="1" parent="1">
          <mxGeometry x="300" y="80" width="150" height="182" as="geometry" />
        </mxCell>
        <mxCell id="XJ-OeJNL36vLXr4gW2SC-10" value="- nombre: String" style="text;strokeColor=none;fillColor=none;align=left;verticalAlign=top;spacingLeft=4;spacingRight=4;overflow=hidden;rotatable=0;points=[[0,0.5],[1,0.5]];portConstraint=eastwest;whiteSpace=wrap;html=1;" vertex="1" parent="XJ-OeJNL36vLXr4gW2SC-9">
          <mxGeometry y="26" width="150" height="26" as="geometry" />
        </mxCell>
        <mxCell id="XJ-OeJNL36vLXr4gW2SC-11" value="- nombreUsuario: String" style="text;strokeColor=none;fillColor=none;align=left;verticalAlign=top;spacingLeft=4;spacingRight=4;overflow=hidden;rotatable=0;points=[[0,0.5],[1,0.5]];portConstraint=eastwest;whiteSpace=wrap;html=1;" vertex="1" parent="XJ-OeJNL36vLXr4gW2SC-9">
          <mxGeometry y="52" width="150" height="26" as="geometry" />
        </mxCell>
        <mxCell id="XJ-OeJNL36vLXr4gW2SC-12" value="- contrase침a: String" style="text;strokeColor=none;fillColor=none;align=left;verticalAlign=top;spacingLeft=4;spacingRight=4;overflow=hidden;rotatable=0;points=[[0,0.5],[1,0.5]];portConstraint=eastwest;whiteSpace=wrap;html=1;" vertex="1" parent="XJ-OeJNL36vLXr4gW2SC-9">
          <mxGeometry y="78" width="150" height="26" as="geometry" />
        </mxCell>
        <mxCell id="XJ-OeJNL36vLXr4gW2SC-43" value="- productos: Productos" style="text;strokeColor=none;fillColor=none;align=left;verticalAlign=top;spacingLeft=4;spacingRight=4;overflow=hidden;rotatable=0;points=[[0,0.5],[1,0.5]];portConstraint=eastwest;whiteSpace=wrap;html=1;" vertex="1" parent="XJ-OeJNL36vLXr4gW2SC-9">
          <mxGeometry y="104" width="150" height="26" as="geometry" />
        </mxCell>
        <mxCell id="XJ-OeJNL36vLXr4gW2SC-44" value="- inventario: Inventario" style="text;strokeColor=none;fillColor=none;align=left;verticalAlign=top;spacingLeft=4;spacingRight=4;overflow=hidden;rotatable=0;points=[[0,0.5],[1,0.5]];portConstraint=eastwest;whiteSpace=wrap;html=1;" vertex="1" parent="XJ-OeJNL36vLXr4gW2SC-9">
          <mxGeometry y="130" width="150" height="26" as="geometry" />
        </mxCell>
        <mxCell id="XJ-OeJNL36vLXr4gW2SC-45" value="- vendedor: Vendedor" style="text;strokeColor=none;fillColor=none;align=left;verticalAlign=top;spacingLeft=4;spacingRight=4;overflow=hidden;rotatable=0;points=[[0,0.5],[1,0.5]];portConstraint=eastwest;whiteSpace=wrap;html=1;" vertex="1" parent="XJ-OeJNL36vLXr4gW2SC-9">
          <mxGeometry y="156" width="150" height="26" as="geometry" />
        </mxCell>
        <mxCell id="XJ-OeJNL36vLXr4gW2SC-61" style="edgeStyle=orthogonalEdgeStyle;rounded=0;orthogonalLoop=1;jettySize=auto;html=1;entryX=1;entryY=0.5;entryDx=0;entryDy=0;exitX=1;exitY=0.096;exitDx=0;exitDy=0;exitPerimeter=0;" edge="1" parent="1" source="XJ-OeJNL36vLXr4gW2SC-13" target="XJ-OeJNL36vLXr4gW2SC-58">
          <mxGeometry relative="1" as="geometry" />
        </mxCell>
        <mxCell id="XJ-OeJNL36vLXr4gW2SC-13" value="Vendedor" style="swimlane;fontStyle=0;childLayout=stackLayout;horizontal=1;startSize=26;fillColor=none;horizontalStack=0;resizeParent=1;resizeParentMax=0;resizeLast=0;collapsible=1;marginBottom=0;whiteSpace=wrap;html=1;" vertex="1" parent="1">
          <mxGeometry x="560" y="80" width="150" height="104" as="geometry" />
        </mxCell>
        <mxCell id="XJ-OeJNL36vLXr4gW2SC-14" value="+ nombre: String" style="text;strokeColor=none;fillColor=none;align=left;verticalAlign=top;spacingLeft=4;spacingRight=4;overflow=hidden;rotatable=0;points=[[0,0.5],[1,0.5]];portConstraint=eastwest;whiteSpace=wrap;html=1;" vertex="1" parent="XJ-OeJNL36vLXr4gW2SC-13">
          <mxGeometry y="26" width="150" height="26" as="geometry" />
        </mxCell>
        <mxCell id="XJ-OeJNL36vLXr4gW2SC-15" value="+ nombreUsuario: String" style="text;strokeColor=none;fillColor=none;align=left;verticalAlign=top;spacingLeft=4;spacingRight=4;overflow=hidden;rotatable=0;points=[[0,0.5],[1,0.5]];portConstraint=eastwest;whiteSpace=wrap;html=1;" vertex="1" parent="XJ-OeJNL36vLXr4gW2SC-13">
          <mxGeometry y="52" width="150" height="26" as="geometry" />
        </mxCell>
        <mxCell id="XJ-OeJNL36vLXr4gW2SC-16" value="+ contrase침a: String" style="text;strokeColor=none;fillColor=none;align=left;verticalAlign=top;spacingLeft=4;spacingRight=4;overflow=hidden;rotatable=0;points=[[0,0.5],[1,0.5]];portConstraint=eastwest;whiteSpace=wrap;html=1;" vertex="1" parent="XJ-OeJNL36vLXr4gW2SC-13">
          <mxGeometry y="78" width="150" height="26" as="geometry" />
        </mxCell>
        <mxCell id="XJ-OeJNL36vLXr4gW2SC-54" style="edgeStyle=orthogonalEdgeStyle;rounded=0;orthogonalLoop=1;jettySize=auto;html=1;entryX=0;entryY=0.25;entryDx=0;entryDy=0;exitX=1.016;exitY=0.163;exitDx=0;exitDy=0;exitPerimeter=0;" edge="1" parent="1" source="XJ-OeJNL36vLXr4gW2SC-20" target="XJ-OeJNL36vLXr4gW2SC-49">
          <mxGeometry relative="1" as="geometry" />
        </mxCell>
        <mxCell id="XJ-OeJNL36vLXr4gW2SC-20" value="Productos" style="swimlane;fontStyle=0;childLayout=stackLayout;horizontal=1;startSize=26;fillColor=none;horizontalStack=0;resizeParent=1;resizeParentMax=0;resizeLast=0;collapsible=1;marginBottom=0;whiteSpace=wrap;html=1;" vertex="1" parent="1">
          <mxGeometry x="160" y="280" width="150" height="104" as="geometry" />
        </mxCell>
        <mxCell id="XJ-OeJNL36vLXr4gW2SC-21" value="+ nombre: String" style="text;strokeColor=none;fillColor=none;align=left;verticalAlign=top;spacingLeft=4;spacingRight=4;overflow=hidden;rotatable=0;points=[[0,0.5],[1,0.5]];portConstraint=eastwest;whiteSpace=wrap;html=1;" vertex="1" parent="XJ-OeJNL36vLXr4gW2SC-20">
          <mxGeometry y="26" width="150" height="26" as="geometry" />
        </mxCell>
        <mxCell id="XJ-OeJNL36vLXr4gW2SC-22" value="+ precio: float" style="text;strokeColor=none;fillColor=none;align=left;verticalAlign=top;spacingLeft=4;spacingRight=4;overflow=hidden;rotatable=0;points=[[0,0.5],[1,0.5]];portConstraint=eastwest;whiteSpace=wrap;html=1;" vertex="1" parent="XJ-OeJNL36vLXr4gW2SC-20">
          <mxGeometry y="52" width="150" height="26" as="geometry" />
        </mxCell>
        <mxCell id="XJ-OeJNL36vLXr4gW2SC-24" value="+ codigoProducto: String" style="text;strokeColor=none;fillColor=none;align=left;verticalAlign=top;spacingLeft=4;spacingRight=4;overflow=hidden;rotatable=0;points=[[0,0.5],[1,0.5]];portConstraint=eastwest;whiteSpace=wrap;html=1;" vertex="1" parent="XJ-OeJNL36vLXr4gW2SC-20">
          <mxGeometry y="78" width="150" height="26" as="geometry" />
        </mxCell>
        <mxCell id="XJ-OeJNL36vLXr4gW2SC-26" value="Inventario" style="swimlane;fontStyle=0;childLayout=stackLayout;horizontal=1;startSize=26;fillColor=none;horizontalStack=0;resizeParent=1;resizeParentMax=0;resizeLast=0;collapsible=1;marginBottom=0;whiteSpace=wrap;html=1;" vertex="1" parent="1">
          <mxGeometry x="530" y="320" width="140" height="78" as="geometry" />
        </mxCell>
        <mxCell id="XJ-OeJNL36vLXr4gW2SC-27" value="+ cantidad: int" style="text;strokeColor=none;fillColor=none;align=left;verticalAlign=top;spacingLeft=4;spacingRight=4;overflow=hidden;rotatable=0;points=[[0,0.5],[1,0.5]];portConstraint=eastwest;whiteSpace=wrap;html=1;" vertex="1" parent="XJ-OeJNL36vLXr4gW2SC-26">
          <mxGeometry y="26" width="140" height="26" as="geometry" />
        </mxCell>
        <mxCell id="XJ-OeJNL36vLXr4gW2SC-33" value="+ codigoProucto: String" style="text;strokeColor=none;fillColor=none;align=left;verticalAlign=top;spacingLeft=4;spacingRight=4;overflow=hidden;rotatable=0;points=[[0,0.5],[1,0.5]];portConstraint=eastwest;whiteSpace=wrap;html=1;" vertex="1" parent="XJ-OeJNL36vLXr4gW2SC-26">
          <mxGeometry y="52" width="140" height="26" as="geometry" />
        </mxCell>
        <mxCell id="XJ-OeJNL36vLXr4gW2SC-35" value="" style="edgeStyle=orthogonalEdgeStyle;rounded=0;orthogonalLoop=1;jettySize=auto;html=1;entryX=-0.023;entryY=0.695;entryDx=0;entryDy=0;entryPerimeter=0;" edge="1" parent="1" source="XJ-OeJNL36vLXr4gW2SC-7" target="XJ-OeJNL36vLXr4gW2SC-11">
          <mxGeometry relative="1" as="geometry" />
        </mxCell>
        <mxCell id="XJ-OeJNL36vLXr4gW2SC-37" value="" style="edgeStyle=orthogonalEdgeStyle;rounded=0;orthogonalLoop=1;jettySize=auto;html=1;entryX=0.5;entryY=0;entryDx=0;entryDy=0;exitX=0;exitY=0.5;exitDx=0;exitDy=0;" edge="1" parent="1" source="XJ-OeJNL36vLXr4gW2SC-43" target="XJ-OeJNL36vLXr4gW2SC-20">
          <mxGeometry relative="1" as="geometry" />
        </mxCell>
        <mxCell id="XJ-OeJNL36vLXr4gW2SC-38" value="" style="edgeStyle=orthogonalEdgeStyle;rounded=0;orthogonalLoop=1;jettySize=auto;html=1;entryX=0.5;entryY=0;entryDx=0;entryDy=0;exitX=1;exitY=0.5;exitDx=0;exitDy=0;" edge="1" parent="1" source="XJ-OeJNL36vLXr4gW2SC-44" target="XJ-OeJNL36vLXr4gW2SC-26">
          <mxGeometry relative="1" as="geometry">
            <mxPoint x="470" y="210" as="sourcePoint" />
            <Array as="points">
              <mxPoint x="450" y="220" />
              <mxPoint x="600" y="220" />
            </Array>
          </mxGeometry>
        </mxCell>
        <mxCell id="XJ-OeJNL36vLXr4gW2SC-49" value="Ventas" style="swimlane;fontStyle=0;childLayout=stackLayout;horizontal=1;startSize=26;fillColor=none;horizontalStack=0;resizeParent=1;resizeParentMax=0;resizeLast=0;collapsible=1;marginBottom=0;whiteSpace=wrap;html=1;" vertex="1" parent="1">
          <mxGeometry x="350" y="410" width="140" height="130" as="geometry" />
        </mxCell>
        <mxCell id="XJ-OeJNL36vLXr4gW2SC-50" value="+ producto: Productos" style="text;strokeColor=none;fillColor=none;align=left;verticalAlign=top;spacingLeft=4;spacingRight=4;overflow=hidden;rotatable=0;points=[[0,0.5],[1,0.5]];portConstraint=eastwest;whiteSpace=wrap;html=1;" vertex="1" parent="XJ-OeJNL36vLXr4gW2SC-49">
          <mxGeometry y="26" width="140" height="26" as="geometry" />
        </mxCell>
        <mxCell id="XJ-OeJNL36vLXr4gW2SC-51" value="+ inventario: Inventario" style="text;strokeColor=none;fillColor=none;align=left;verticalAlign=top;spacingLeft=4;spacingRight=4;overflow=hidden;rotatable=0;points=[[0,0.5],[1,0.5]];portConstraint=eastwest;whiteSpace=wrap;html=1;" vertex="1" parent="XJ-OeJNL36vLXr4gW2SC-49">
          <mxGeometry y="52" width="140" height="26" as="geometry" />
        </mxCell>
        <mxCell id="XJ-OeJNL36vLXr4gW2SC-58" value="+ vendedor: Vendedor" style="text;strokeColor=none;fillColor=none;align=left;verticalAlign=top;spacingLeft=4;spacingRight=4;overflow=hidden;rotatable=0;points=[[0,0.5],[1,0.5]];portConstraint=eastwest;whiteSpace=wrap;html=1;" vertex="1" parent="XJ-OeJNL36vLXr4gW2SC-49">
          <mxGeometry y="78" width="140" height="26" as="geometry" />
        </mxCell>
        <mxCell id="XJ-OeJNL36vLXr4gW2SC-59" value="+ montoTotal: float" style="text;strokeColor=none;fillColor=none;align=left;verticalAlign=top;spacingLeft=4;spacingRight=4;overflow=hidden;rotatable=0;points=[[0,0.5],[1,0.5]];portConstraint=eastwest;whiteSpace=wrap;html=1;" vertex="1" parent="XJ-OeJNL36vLXr4gW2SC-49">
          <mxGeometry y="104" width="140" height="26" as="geometry" />
        </mxCell>
        <mxCell id="XJ-OeJNL36vLXr4gW2SC-53" style="edgeStyle=orthogonalEdgeStyle;rounded=0;orthogonalLoop=1;jettySize=auto;html=1;entryX=-0.013;entryY=0.182;entryDx=0;entryDy=0;entryPerimeter=0;exitX=1.016;exitY=0.15;exitDx=0;exitDy=0;exitPerimeter=0;" edge="1" parent="1" source="XJ-OeJNL36vLXr4gW2SC-20" target="XJ-OeJNL36vLXr4gW2SC-26">
          <mxGeometry relative="1" as="geometry" />
        </mxCell>
        <mxCell id="XJ-OeJNL36vLXr4gW2SC-56" style="edgeStyle=orthogonalEdgeStyle;rounded=0;orthogonalLoop=1;jettySize=auto;html=1;entryX=-0.008;entryY=0.2;entryDx=0;entryDy=0;entryPerimeter=0;" edge="1" parent="1" source="XJ-OeJNL36vLXr4gW2SC-49" target="XJ-OeJNL36vLXr4gW2SC-26">
          <mxGeometry relative="1" as="geometry">
            <Array as="points">
              <mxPoint x="500" y="449" />
              <mxPoint x="500" y="336" />
            </Array>
          </mxGeometry>
        </mxCell>
        <mxCell id="XJ-OeJNL36vLXr4gW2SC-57" style="edgeStyle=orthogonalEdgeStyle;rounded=0;orthogonalLoop=1;jettySize=auto;html=1;entryX=0;entryY=0.096;entryDx=0;entryDy=0;entryPerimeter=0;" edge="1" parent="1" source="XJ-OeJNL36vLXr4gW2SC-45" target="XJ-OeJNL36vLXr4gW2SC-13">
          <mxGeometry relative="1" as="geometry" />
        </mxCell>
      </root>
    </mxGraphModel>
  </diagram>
</mxfile>
